<svg width="46" height="46" viewBox="0 0 46 46" fill="none" xmlns="http://www.w3.org/2000/svg">
<path d="M20.2217 29.8714L32.2142 17.8789L30.8867 16.5514L20.2217 27.2164L14.878 21.8727L13.5505 23.2002L20.2217 29.8714ZM22.9236 39.4189C20.5911 39.4189 18.3973 38.9764 16.3423 38.0914C14.2886 37.2052 12.5017 36.0027 10.9817 34.4839C9.46172 32.9652 8.25859 31.1802 7.37234 29.1289C6.48609 27.0777 6.04297 24.8846 6.04297 22.5496C6.04297 20.2146 6.48609 18.0208 7.37234 15.9683C8.25734 13.9146 9.45797 12.1277 10.9742 10.6077C12.4905 9.0877 14.2761 7.88457 16.3311 6.99832C18.3861 6.11207 20.5798 5.66895 22.9123 5.66895C25.2448 5.66895 27.4386 6.11207 29.4936 6.99832C31.5473 7.88332 33.3342 9.08457 34.8542 10.6021C36.3742 12.1196 37.5773 13.9052 38.4636 15.9589C39.3498 18.0127 39.793 20.2058 39.793 22.5383C39.793 24.8708 39.3505 27.0646 38.4655 29.1196C37.5805 31.1746 36.378 32.9614 34.858 34.4802C33.338 35.9989 31.553 37.2021 29.503 38.0896C27.453 38.9771 25.2598 39.4202 22.9236 39.4189ZM22.918 37.5439C27.1055 37.5439 30.6523 36.0908 33.5586 33.1846C36.4648 30.2783 37.918 26.7314 37.918 22.5439C37.918 18.3564 36.4648 14.8096 33.5586 11.9033C30.6523 8.99707 27.1055 7.54395 22.918 7.54395C18.7305 7.54395 15.1836 8.99707 12.2773 11.9033C9.37109 14.8096 7.91797 18.3564 7.91797 22.5439C7.91797 26.7314 9.37109 30.2783 12.2773 33.1846C15.1836 36.0908 18.7305 37.5439 22.918 37.5439Z" fill="#131313"/>
</svg>
