<svg width="22" height="22" viewBox="0 0 22 22" fill="none" xmlns="http://www.w3.org/2000/svg">
<g clip-path="url(#clip0_764_8268)">
<path d="M16.4453 16.4453C14.8784 17.6398 12.9703 18.3015 11.0003 18.3337C4.58366 18.3337 0.916992 11.0003 0.916992 11.0003C2.05722 8.87542 3.6387 7.01891 5.55533 5.55535M9.07533 3.88702C9.7063 3.73932 10.3523 3.66549 11.0003 3.66702C17.417 3.66702 21.0837 11.0003 21.0837 11.0003C20.5272 12.0413 19.8636 13.0214 19.1037 13.9245M12.9437 12.9437C12.6919 13.2139 12.3883 13.4306 12.051 13.5809C11.7136 13.7312 11.3495 13.812 10.9802 13.8185C10.611 13.825 10.2442 13.7571 9.9018 13.6188C9.55938 13.4805 9.24832 13.2746 8.98719 13.0135C8.72605 12.7524 8.52019 12.4413 8.38188 12.0989C8.24357 11.7564 8.17564 11.3897 8.18216 11.0204C8.18867 10.6512 8.26949 10.287 8.4198 9.94971C8.5701 9.61238 8.78681 9.30878 9.05699 9.05702" stroke="#131313" stroke-width="2" stroke-linecap="round" stroke-linejoin="round"/>
<path d="M0.916992 0.916992L21.0837 21.0837" stroke="#131313" stroke-width="2" stroke-linecap="round" stroke-linejoin="round"/>
</g>
<defs>
<clipPath id="clip0_764_8268">
<rect width="22" height="22" fill="white"/>
</clipPath>
</defs>
</svg>
